<svg id="Layer_1" data-name="Layer 1" xmlns="http://www.w3.org/2000/svg" viewBox="0 0 512 512"><defs><style>.cls-1{fill:#868686;}.cls-1,.cls-2,.cls-3,.cls-4{stroke:#000;stroke-miterlimit:10;}.cls-1,.cls-2{stroke-width:6px;}.cls-3{stroke-width:3px;}</style></defs><ellipse class="cls-1" cx="256" cy="226.24" rx="77.73" ry="125.44"/><path class="cls-2" d="M457.67,209.38c0,37-90.29,9.25-201.67,9.25S54.33,246.42,54.33,209.38,144.62,140.14,256,140.14,457.67,172.34,457.67,209.38Z"/><path class="cls-2" d="M320.8,139.37c-.13,29.72-33.66,13.89-71.71,13.89s-64,14.85-66.07-13.89c-2.19-30.73-7-93.16,17.42-118,9-9.17,40.75-6.5,51-6.5,9.51,0,43.34-2.33,51.59,5.7C327.82,44.64,320.93,107.81,320.8,139.37Z"/><path class="cls-3" d="M335,210.09c1.93-2.58,9.21.45,17.74,2.5a96.48,96.48,0,0,0,18.19,2.54c0,.09,0,.17,0,.24.17,1,.36,2,.51,3.06.47,3.11.81,6.23,1,9.37.07,1.28.12,2.55.15,3.83,0,1,0,2.07,0,3.1,0,1.32-.06,2.65-.12,4-.06,1.17-.14,2.35-.25,3.52,0,.35-.07.7-.1,1.05-.18,2.05-.39,4.11-.74,6.14-.29,1.74-.62,3.48-1,5.21-.07.39-.17.77-.25,1.15q-.57,2.52-1.13,5c-.17.77-.34,1.53-.54,2.3-.26,1-.51,2-.77,3-.33,1.19-.67,2.37-1,3.55-.27.91-.76,2.38-1.1,3.26-.4,1-.81,2.07-1.24,3.1-1.28,3.1-2.59,6.2-3.88,9.3-1.44,3.46-2.73,7-3.82,10.56-.2.67-.4,1.35-.55,2-.07.34-.18.67-.26,1s-.2.76-.27,1.15c-.3,1.54-.6,3.09-.78,4.65-.14,1.22-.26,2.45-.39,3.67a20.13,20.13,0,0,0,0,2.8,4.21,4.21,0,0,0,.11.58c0,.13.22.25.33.2.28-.11.55-.21.82-.34a13.19,13.19,0,0,1,2.5-.86,8.8,8.8,0,0,1,4.8.14,8.59,8.59,0,0,1,4,2.67,25.8,25.8,0,0,1,5.72,20c0,.13,0,.26-.05.39a20.73,20.73,0,0,1-.33,2.07,26.77,26.77,0,0,1-8.54,14.22,11.66,11.66,0,0,1-1.27.95,35,35,0,0,1-4.65,2.54A39.77,39.77,0,0,1,344.89,357c-1.32.12-2.65.17-4,.18s-2.65-.09-4-.11a49.84,49.84,0,0,1-8.14-1.31,30.83,30.83,0,0,1-3.66-1.1,30,30,0,0,1-6.09-2.95,24.41,24.41,0,0,1-9.32-10.57,30.19,30.19,0,0,1-2.28-7.3c0-.06-.05-.48-.16-1l-.07-.28c-.13-.54-1.34-9.43,2.31-16.69.23-.47.57-1.08,1.1-2.21.85-1.77,1.11-2.58,2.08-4.58l.91-1.86a91.83,91.83,0,0,1,4.76-8.78,24.15,24.15,0,0,0,2-4c.91-2.28,1.78-4.58,2.58-6.9.65-1.86,1.27-3.72,1.82-5.61.25-.9.55-1.78.81-2.68s.55-2,.81-3c.35-1.33.69-2.66,1-4a.58.58,0,0,0,0-.14c.32-1.54.73-3.06,1-4.6.17-.87.36-1.74.53-2.6.09-.44.19-.87.26-1.31.47-2.76.94-5.52,1.32-8.3s.68-5.56,1-8.34c.05-.54.08-1.08.12-1.62.05-.74.1-1.47.16-2.21s.14-1.57.13-2.35c0-.1,0-.2,0-.3.16-1.61.14-3.23.22-4.84,0-1,0-2,0-2.95,0-.75,0-1.5,0-2.25a5,5,0,0,1,.05-.86c.06-.39.13-.77.21-1.16.26-1.26.94-5.41,1.26-8.16.15-1.28.07-.84.35-3.67C334.51,212.47,334.72,210.41,335,210.09Z"/><path class="cls-3" d="M176.35,210.09c-1.93-2.58-9.21.45-17.74,2.5a96.35,96.35,0,0,1-18.19,2.54.92.92,0,0,1,0,.24c-.17,1-.35,2-.51,3.06-.47,3.11-.81,6.23-1,9.37-.07,1.28-.12,2.55-.15,3.83,0,1,0,2.07,0,3.1,0,1.32.06,2.65.13,4,.06,1.17.13,2.35.25,3.52,0,.35.07.7.1,1.05.17,2.05.38,4.11.73,6.14.3,1.74.63,3.48.95,5.21.07.39.17.77.25,1.15.38,1.68.77,3.36,1.14,5,.17.77.33,1.53.53,2.3.26,1,.51,2,.78,3,.32,1.19.66,2.37,1,3.55.26.91.75,2.38,1.09,3.26.41,1,.82,2.07,1.24,3.1l3.88,9.3c1.44,3.46,2.73,7,3.82,10.56.2.67.4,1.35.55,2,.08.34.18.67.26,1s.2.76.28,1.15c.29,1.54.59,3.09.77,4.65.14,1.22.26,2.45.39,3.67a20.13,20.13,0,0,1,0,2.8,4.21,4.21,0,0,1-.11.58.28.28,0,0,1-.33.2c-.27-.11-.55-.21-.82-.34a12.73,12.73,0,0,0-2.5-.86,8.8,8.8,0,0,0-4.8.14,8.59,8.59,0,0,0-4,2.67,25.44,25.44,0,0,0-5.42,11.31,25.15,25.15,0,0,0-.3,8.65c0,.13,0,.26.05.39A18.22,18.22,0,0,0,139,336a26.77,26.77,0,0,0,8.54,14.22,10.76,10.76,0,0,0,1.27.95,33.75,33.75,0,0,0,4.65,2.54A39.71,39.71,0,0,0,166.42,357c1.32.12,2.65.17,4,.18s2.65-.09,4-.11a49.67,49.67,0,0,0,8.14-1.31,31.56,31.56,0,0,0,3.67-1.1,29.7,29.7,0,0,0,6.08-2.95,24.35,24.35,0,0,0,9.32-10.57,29.75,29.75,0,0,0,2.28-7.3c0-.06,0-.48.17-1,0-.16.06-.27.06-.28.14-.54,1.34-9.43-2.3-16.69-.24-.47-.57-1.08-1.11-2.21-.84-1.77-1.11-2.58-2.08-4.58l-.9-1.86a94.2,94.2,0,0,0-4.77-8.78,24.15,24.15,0,0,1-2-4c-.91-2.28-1.78-4.58-2.58-6.9-.64-1.86-1.27-3.72-1.81-5.61-.26-.9-.56-1.78-.82-2.68s-.55-2-.81-3c-.35-1.33-.68-2.66-1-4a.57.57,0,0,1,0-.14c-.32-1.54-.73-3.06-1-4.6-.17-.87-.35-1.74-.53-2.6-.09-.44-.18-.87-.26-1.31-.47-2.76-.93-5.52-1.32-8.3s-.68-5.56-1-8.34c-.06-.54-.09-1.08-.13-1.62-.05-.74-.1-1.47-.16-2.21s-.14-1.57-.13-2.35c0-.1,0-.2,0-.3-.16-1.61-.13-3.23-.21-4.84-.05-1,0-2,0-2.95,0-.75,0-1.5,0-2.25a5,5,0,0,0,0-.86c-.07-.39-.14-.77-.22-1.16-.26-1.26-.94-5.41-1.26-8.16-.15-1.28-.07-.84-.34-3.67C176.8,212.47,176.59,210.41,176.35,210.09Z"/><polygon class="cls-4" points="256 297.8 260.55 297.8 258.27 303.68 256 309.56 253.73 303.68 251.45 297.8 256 297.8"/><path class="cls-4" d="M256,290.19a49.56,49.56,0,0,0,63.63,0,122.73,122.73,0,0,1-23.38-7.07c-7-2.91-13.2-5.65-18.13-8.72A59.77,59.77,0,0,1,266.64,266,55.59,55.59,0,0,1,256,253.37a49.12,49.12,0,0,1-10.74,13.26c-4.57,4-8.28,7.29-11.6,8.76-4.82,3.09-11.68,5.55-19,8.47a108.94,108.94,0,0,1-22.33,6.33,49.38,49.38,0,0,0,63.63,0Z"/><path d="M250.82,472q0,9.5-16.44,9.49H179q-16.56,0-16.56-9.49V387.09q0-9.57,16.21-9.57h55.29q16.46,0,16.45,9.57v22H223.53v-18.2H189.24v31.28h45.14q16.44,0,16.44,9.36Zm-26.71-3.86V435.36H189.24V468.1Z"/><path d="M349.59,481.45H329.15V430.18a69.33,69.33,0,0,1,1.27-11.28L312.07,472H301.26L282.81,418.9a71.43,71.43,0,0,1,1.27,11.28v51.27H263.64V377.52h20.08L306.07,435a20.81,20.81,0,0,1,.55,4.71,29.12,29.12,0,0,1,.54-4.71l22.35-57.45h20.08Z"/></svg>