<svg id="Layer_1" data-name="Layer 1" xmlns="http://www.w3.org/2000/svg" viewBox="0 0 795.63 512"><defs><style>.cls-1{fill:#9c9c9b;}.cls-1,.cls-2,.cls-3,.cls-4{stroke:#000;stroke-miterlimit:10;}.cls-1,.cls-2{stroke-width:6px;}.cls-3{stroke-width:3px;}</style></defs><ellipse class="cls-1" cx="296.83" cy="312.17" rx="109.89" ry="177.34"/><path class="cls-2" d="M581.94,288.33c0,52.37-127.65,13.08-285.11,13.08S11.73,340.7,11.73,288.33s127.64-97.89,285.1-97.89S581.94,236,581.94,288.33Z"/><path class="cls-2" d="M388.44,189.36c-.18,42-47.59,19.64-101.38,19.64s-90.52,21-93.41-19.64c-3.09-43.44-9.84-131.7,24.63-166.82,12.74-13,57.61-9.2,72.12-9.2,13.45,0,61.27-3.29,72.94,8.06C398.37,55.43,388.63,144.74,388.44,189.36Z"/><path class="cls-3" d="M408.47,289.33c2.72-3.64,13,.65,25.07,3.54a135.56,135.56,0,0,0,25.72,3.6c0,.11,0,.23,0,.34.24,1.44.51,2.87.73,4.31.66,4.4,1.14,8.82,1.38,13.26.1,1.8.17,3.61.21,5.41q.06,2.19,0,4.38c0,1.87-.08,3.75-.18,5.62-.08,1.67-.19,3.33-.35,5,0,.49-.1,1-.14,1.48-.25,2.9-.54,5.81-1,8.68-.42,2.46-.88,4.91-1.34,7.37-.1.54-.24,1.08-.36,1.63-.53,2.37-1.08,4.74-1.6,7.11-.24,1.09-.47,2.18-.76,3.25-.36,1.41-.71,2.83-1.09,4.24-.46,1.68-.94,3.34-1.43,5-.37,1.29-1.06,3.37-1.55,4.62q-.86,2.19-1.75,4.37-2.73,6.58-5.49,13.16a157,157,0,0,0-5.39,14.92c-.29.95-.57,1.92-.78,2.89-.11.48-.26.94-.38,1.41s-.27,1.08-.38,1.63c-.42,2.18-.84,4.36-1.09,6.58-.2,1.72-.37,3.45-.56,5.18a28.93,28.93,0,0,0,0,3.95,4.57,4.57,0,0,0,.16.82.4.4,0,0,0,.47.29c.38-.16.77-.3,1.15-.47a18.55,18.55,0,0,1,3.54-1.23,12.41,12.41,0,0,1,6.78.2,12.16,12.16,0,0,1,5.63,3.77,36.61,36.61,0,0,1,8.09,28.23c0,.18,0,.36-.08.54a24,24,0,0,1-.47,2.94,37.91,37.91,0,0,1-12.07,20.1,15.45,15.45,0,0,1-1.79,1.34,49.37,49.37,0,0,1-6.58,3.59A56.06,56.06,0,0,1,422.5,497c-1.87.16-3.74.23-5.62.25s-3.74-.13-5.62-.16a68.89,68.89,0,0,1-11.5-1.85A47.28,47.28,0,0,1,386,489.53a34.58,34.58,0,0,1-13.18-14.95,42.5,42.5,0,0,1-3.22-10.32c0-.08-.06-.67-.23-1.44l-.09-.4c-.19-.77-1.9-13.33,3.26-23.59.33-.67.8-1.53,1.56-3.13,1.19-2.5,1.57-3.65,2.94-6.48.43-.87.85-1.75,1.28-2.62A135,135,0,0,1,385,414.19a33.85,33.85,0,0,0,2.82-5.61c1.28-3.23,2.51-6.48,3.65-9.76.91-2.63,1.79-5.26,2.56-7.93.37-1.27.79-2.52,1.15-3.79s.78-2.81,1.15-4.22c.49-1.89,1-3.77,1.45-5.66a1.17,1.17,0,0,0,.05-.2c.45-2.18,1-4.33,1.45-6.51.24-1.23.51-2.45.76-3.68.12-.61.25-1.22.36-1.84.67-3.9,1.32-7.81,1.87-11.73s1-7.87,1.38-11.8c.08-.76.12-1.53.17-2.29.08-1,.14-2.08.23-3.12s.2-2.22.18-3.33a3,3,0,0,1,0-.42c.22-2.27.19-4.56.3-6.84.07-1.39,0-2.78,0-4.17,0-1.06.06-2.12,0-3.18a8.31,8.31,0,0,1,.06-1.22c.09-.55.19-1.09.31-1.64.37-1.79,1.33-7.64,1.78-11.53.21-1.82.09-1.2.49-5.19C407.83,292.71,408.13,289.79,408.47,289.33Z"/><path class="cls-3" d="M184.23,289.33c-2.73-3.64-13,.65-25.08,3.54a135.31,135.31,0,0,1-25.72,3.6,1.93,1.93,0,0,1,0,.34c-.24,1.44-.5,2.87-.72,4.31-.67,4.4-1.15,8.82-1.39,13.26-.09,1.8-.16,3.61-.21,5.41,0,1.46,0,2.92,0,4.38,0,1.87.08,3.75.17,5.62.09,1.67.19,3.33.35,5,.05.49.1,1,.14,1.48.26,2.9.55,5.81,1,8.68.42,2.46.89,4.91,1.34,7.37.1.54.24,1.08.36,1.63.54,2.37,1.08,4.74,1.6,7.11.24,1.09.48,2.18.76,3.25.37,1.41.72,2.83,1.1,4.24.45,1.68.94,3.34,1.42,5,.38,1.29,1.07,3.37,1.56,4.62q.84,2.19,1.74,4.37c1.82,4.39,3.67,8.77,5.49,13.16a157,157,0,0,1,5.4,14.92c.29.95.56,1.92.78,2.89.1.48.25.94.37,1.41s.28,1.08.38,1.63c.42,2.18.85,4.36,1.1,6.58.2,1.72.37,3.45.55,5.18a27.41,27.41,0,0,1,0,3.95,5.64,5.64,0,0,1-.15.82.41.41,0,0,1-.47.29c-.39-.16-.78-.3-1.16-.47a18.46,18.46,0,0,0-3.53-1.23,12.4,12.4,0,0,0-6.78.2,12.06,12.06,0,0,0-5.63,3.77,36.57,36.57,0,0,0-8.1,28.23c0,.18.06.36.08.54a28.57,28.57,0,0,0,.47,2.94,37.86,37.86,0,0,0,12.08,20.1,14.64,14.64,0,0,0,1.79,1.34,48.16,48.16,0,0,0,6.58,3.59A55.94,55.94,0,0,0,170.19,497c1.87.16,3.74.23,5.62.25s3.75-.13,5.62-.16a68.84,68.84,0,0,0,11.51-1.85,42.3,42.3,0,0,0,5.18-1.56,42.91,42.91,0,0,0,8.6-4.16,34.52,34.52,0,0,0,13.18-14.95,42.5,42.5,0,0,0,3.22-10.32c0-.08.07-.67.24-1.44a2.84,2.84,0,0,1,.09-.4c.19-.77,1.89-13.33-3.26-23.59-.34-.67-.81-1.53-1.57-3.13-1.19-2.5-1.56-3.65-2.94-6.48l-1.27-2.62a132.73,132.73,0,0,0-6.74-12.41,35.47,35.47,0,0,1-2.82-5.61c-1.28-3.23-2.51-6.48-3.65-9.76-.9-2.63-1.79-5.26-2.56-7.93-.36-1.27-.78-2.52-1.15-3.79s-.78-2.81-1.14-4.22c-.5-1.89-1-3.77-1.45-5.66l-.06-.2c-.44-2.18-1-4.33-1.45-6.51-.24-1.23-.5-2.45-.75-3.68-.13-.61-.26-1.22-.36-1.84-.67-3.9-1.33-7.81-1.87-11.73s-1-7.87-1.38-11.8c-.08-.76-.12-1.53-.18-2.29-.07-1-.14-2.08-.22-3.12s-.2-2.22-.19-3.33c0-.14,0-.28,0-.42-.23-2.27-.19-4.56-.3-6.84-.07-1.39,0-2.78,0-4.17,0-1.06-.06-2.12,0-3.18a6.24,6.24,0,0,0-.06-1.22c-.09-.55-.19-1.09-.3-1.64-.37-1.79-1.33-7.64-1.78-11.53-.21-1.82-.1-1.2-.49-5.19C184.86,292.71,184.57,289.79,184.23,289.33Z"/><polygon class="cls-4" points="296.83 413.34 303.26 413.34 300.05 421.65 296.83 429.97 293.62 421.65 290.4 413.34 296.83 413.34"/><path class="cls-4" d="M296.83,402.59a70.09,70.09,0,0,0,89.95,0,175.67,175.67,0,0,1-33-10c-9.92-4.11-18.65-8-25.63-12.32-4.64-2.33-10.23-6.55-16.22-11.82a78.44,78.44,0,0,1-15.05-17.92,69.63,69.63,0,0,1-15.19,18.76c-6.46,5.61-11.69,10.3-16.39,12.38-6.82,4.36-16.52,7.84-26.8,12a154.81,154.81,0,0,1-31.57,9c4.19,3.49,21.74,17.32,47.57,16.36A71,71,0,0,0,296.83,402.59Z"/><path d="M624.82,483.83q0,15.17-26.28,15.17H510q-26.47,0-26.47-15.17V348.21q0-15.27,25.91-15.28h88.34q26.28,0,26.28,15.28v35.13H581.2V354.26H526.41v50h72.13q26.28,0,26.28,15Zm-42.69-6.16V425.36H526.41v52.31Z"/><path d="M782.63,499H750V417.08a110.89,110.89,0,0,1,2-18l-29.33,84.79H705.4L675.93,399a115.38,115.38,0,0,1,2,18V499H645.3V332.93h32.08l35.72,91.79q.57,1.48.86,7.53a46.61,46.61,0,0,1,.88-7.53l35.71-91.79h32.08Z"/></svg>